<svg xmlns="http://www.w3.org/2000/svg" xmlns:xlink="http://www.w3.org/1999/xlink" width="150" zoomAndPan="magnify" viewBox="0 0 112.5 52.499999" height="70" preserveAspectRatio="xMidYMid meet" version="1.0"><defs><g/></defs><g fill="#000000" fill-opacity="1"><g transform="translate(13.247923, 32.087733)"><g><path d="M 1.246094 -6.980469 C 1.324219 -7.625 1.460938 -8.246094 1.636719 -8.851562 C 1.8125 -9.554688 2.046875 -10.101562 2.339844 -10.511719 C 2.828125 -11.230469 3.335938 -11.308594 3.820312 -10.78125 C 4.132812 -10.453125 4.425781 -9.925781 4.679688 -9.203125 C 5.03125 -8.210938 5.226562 -7.058594 5.246094 -5.792969 C 5.285156 -4.523438 5.167969 -3.355469 4.875 -2.300781 C 4.25 0.195312 2.457031 0.195312 1.675781 -2.222656 C 1.304688 -3.492188 1.152344 -4.933594 1.207031 -6.570312 Z M 1.675781 -10.492188 C 1.636719 -10.589844 1.578125 -10.644531 1.480469 -10.664062 C 1.324219 -10.683594 1.207031 -10.605469 1.152344 -10.453125 C 0.859375 -9.183594 0.703125 -7.898438 0.664062 -6.589844 L 0.605469 -5.773438 C 0.585938 -5.441406 0.585938 -5.1875 0.566406 -5.050781 C 0.546875 -4.953125 0.585938 -4.855469 0.683594 -4.796875 C 0.761719 -3.800781 0.917969 -2.90625 1.171875 -2.066406 C 1.382812 -1.363281 1.675781 -0.820312 2.066406 -0.429688 C 2.828125 0.332031 3.839844 0.332031 4.601562 -0.507812 C 4.972656 -0.917969 5.246094 -1.460938 5.421875 -2.183594 C 5.714844 -3.296875 5.832031 -4.503906 5.8125 -5.8125 C 5.773438 -7.136719 5.558594 -8.324219 5.1875 -9.398438 C 4.914062 -10.179688 4.601562 -10.761719 4.230469 -11.152344 C 3.839844 -11.5625 3.433594 -11.71875 3.003906 -11.660156 C 2.59375 -11.601562 2.222656 -11.308594 1.890625 -10.820312 C 1.8125 -10.722656 1.734375 -10.605469 1.675781 -10.492188 Z M 1.675781 -10.492188 "/></g></g></g><g fill="#000000" fill-opacity="1"><g transform="translate(19.232923, 32.087733)"><g><path d="M 0.117188 -7.214844 C 0.0195312 -7.253906 -0.078125 -7.234375 -0.175781 -7.175781 C -0.3125 -7.078125 -0.332031 -6.941406 -0.214844 -6.785156 L -0.136719 -6.667969 L 0 -6.511719 C 0.175781 -6.355469 0.390625 -6.335938 0.605469 -6.472656 C 0.703125 -6.511719 0.78125 -6.570312 0.839844 -6.628906 C 0.9375 -6.746094 0.976562 -6.863281 0.957031 -7 C 0.9375 -7.117188 0.898438 -7.214844 0.878906 -7.292969 L 0.800781 -7.449219 C 0.742188 -7.507812 0.683594 -7.527344 0.625 -7.527344 C 0.488281 -7.566406 0.351562 -7.527344 0.234375 -7.390625 Z M 0.46875 -4.679688 C 0.46875 -4.308594 0.488281 -4.074219 0.703125 -4.015625 L 0.722656 -3.839844 C 0.742188 -3.703125 0.742188 -3.375 0.703125 -2.828125 C 0.664062 -2.242188 0.664062 -1.832031 0.683594 -1.578125 C 0.703125 -1.363281 0.761719 -1.207031 0.820312 -1.074219 C 0.917969 -0.859375 1.074219 -0.761719 1.265625 -0.742188 C 1.441406 -0.742188 1.65625 -0.820312 1.871094 -0.957031 C 2.046875 -1.09375 2.28125 -1.304688 2.535156 -1.597656 C 2.671875 -1.734375 2.652344 -1.851562 2.515625 -1.96875 C 2.378906 -2.105469 2.261719 -2.085938 2.144531 -1.949219 C 1.910156 -1.695312 1.714844 -1.519531 1.539062 -1.402344 C 1.441406 -1.34375 1.382812 -1.304688 1.324219 -1.285156 C 1.304688 -1.304688 1.304688 -1.304688 1.304688 -1.324219 C 1.265625 -1.382812 1.246094 -1.5 1.226562 -1.636719 C 1.207031 -1.851562 1.207031 -2.222656 1.246094 -2.789062 C 1.285156 -3.355469 1.285156 -3.742188 1.265625 -3.917969 C 1.207031 -4.40625 1.152344 -4.738281 1.113281 -4.914062 C 1.09375 -5.011719 1.054688 -5.089844 1.035156 -5.148438 L 0.957031 -5.246094 C 0.878906 -5.304688 0.800781 -5.304688 0.703125 -5.285156 C 0.644531 -5.265625 0.585938 -5.226562 0.546875 -5.167969 C 0.527344 -5.148438 0.507812 -5.109375 0.507812 -5.089844 C 0.488281 -5.011719 0.46875 -4.875 0.46875 -4.679688 Z M 0.46875 -4.679688 "/></g></g></g><g fill="#000000" fill-opacity="1"><g transform="translate(22.040222, 32.087733)"><g><path d="M 1.035156 -0.410156 C 0.722656 -0.410156 0.683594 0.136719 1.074219 0.136719 C 1.09375 0.136719 1.171875 0.136719 1.304688 0.117188 L 1.675781 0.0585938 C 1.832031 0.0390625 1.949219 0.0390625 2.027344 0.0390625 C 2.085938 0.0390625 2.105469 0.0390625 2.125 0.0585938 C 2.105469 -0.0195312 2.085938 -0.0390625 2.046875 -0.0195312 C 2.125 -0.0976562 2.183594 -0.0585938 2.203125 0.078125 C 2.261719 0.410156 2.222656 0.800781 2.046875 1.226562 C 1.96875 1.441406 1.851562 1.695312 1.675781 1.988281 C 1.617188 2.066406 1.363281 2.515625 1.304688 2.671875 C 1.207031 2.828125 1.246094 2.945312 1.402344 3.023438 C 1.578125 3.121094 1.695312 3.082031 1.773438 2.90625 L 1.96875 2.574219 L 2.144531 2.261719 C 2.320312 1.949219 2.457031 1.675781 2.554688 1.421875 C 2.867188 0.644531 2.828125 0.0390625 2.4375 -0.371094 C 2.378906 -0.429688 2.300781 -0.46875 2.203125 -0.488281 C 2.164062 -0.507812 2.105469 -0.507812 2.027344 -0.507812 C 1.929688 -0.507812 1.792969 -0.488281 1.636719 -0.46875 C 1.539062 -0.46875 1.402344 -0.449219 1.246094 -0.429688 C 1.113281 -0.410156 1.054688 -0.410156 1.035156 -0.410156 Z M 1.035156 -0.410156 "/></g></g></g><g fill="#000000" fill-opacity="1"><g transform="translate(24.983988, 32.087733)"><g/></g></g><g fill="#000000" fill-opacity="1"><g transform="translate(30.832532, 32.087733)"><g><path d="M 0.957031 -3.003906 C 0.605469 -3.0625 0.507812 -2.574219 0.839844 -2.457031 C 2.105469 -2.164062 3.003906 -2.769531 3.082031 -3.644531 C 3.101562 -4.09375 2.945312 -4.425781 2.574219 -4.660156 C 2.183594 -4.894531 1.675781 -4.914062 1.074219 -4.71875 C 0.507812 -4.542969 0.136719 -4.132812 -0.0195312 -3.472656 C -0.175781 -2.867188 -0.117188 -2.261719 0.136719 -1.636719 C 0.644531 -0.449219 1.96875 0.546875 3.898438 -0.214844 C 4.074219 -0.273438 4.113281 -0.390625 4.054688 -0.566406 C 3.996094 -0.742188 3.878906 -0.78125 3.703125 -0.722656 C 3.179688 -0.507812 2.691406 -0.449219 2.261719 -0.546875 C 1.421875 -0.703125 0.9375 -1.152344 0.644531 -1.851562 C 0.429688 -2.359375 0.390625 -2.847656 0.507812 -3.335938 C 0.605469 -3.800781 0.859375 -4.09375 1.226562 -4.210938 C 1.675781 -4.347656 2.027344 -4.347656 2.28125 -4.191406 C 2.457031 -4.074219 2.554688 -3.898438 2.535156 -3.683594 C 2.476562 -3.199219 1.949219 -2.769531 0.957031 -3.003906 Z M 0.957031 -3.003906 "/></g></g></g><g fill="#000000" fill-opacity="1"><g transform="translate(35.101961, 32.087733)"><g><path d="M 1.132812 -4.328125 C 1.226562 -4.484375 1.1875 -4.601562 1.035156 -4.699219 C 0.878906 -4.796875 0.761719 -4.757812 0.664062 -4.601562 C 0.566406 -4.425781 0.488281 -4.113281 0.46875 -3.625 C 0.429688 -3.179688 0.429688 -2.710938 0.449219 -2.203125 C 0.46875 -1.636719 0.527344 -1.1875 0.625 -0.839844 C 0.683594 -0.625 0.742188 -0.46875 0.820312 -0.332031 C 0.9375 -0.15625 1.074219 -0.0585938 1.246094 -0.0390625 C 1.8125 0 2.242188 -0.332031 2.515625 -1.035156 C 2.574219 -1.171875 2.710938 -1.65625 2.886719 -2.457031 L 2.925781 -2.671875 C 2.984375 -2.261719 3.0625 -1.949219 3.140625 -1.695312 C 3.414062 -0.800781 3.957031 -0.214844 4.796875 0.0585938 C 4.972656 0.117188 5.070312 0.078125 5.128906 -0.0976562 C 5.1875 -0.273438 5.128906 -0.390625 4.953125 -0.449219 C 4.308594 -0.664062 3.878906 -1.132812 3.664062 -1.851562 C 3.585938 -2.085938 3.511719 -2.4375 3.433594 -2.925781 C 3.355469 -3.472656 3.277344 -3.859375 3.21875 -4.113281 L 3.179688 -4.171875 C 3.160156 -4.230469 3.101562 -4.289062 3.023438 -4.308594 C 2.90625 -4.367188 2.808594 -4.328125 2.710938 -4.210938 L 2.671875 -4.132812 C 2.652344 -4.113281 2.652344 -4.054688 2.652344 -3.996094 C 2.632812 -3.976562 2.632812 -3.957031 2.632812 -3.9375 L 2.632812 -3.859375 L 2.554688 -3.605469 L 2.457031 -3.101562 L 2.457031 -3.082031 C 2.4375 -3.082031 2.4375 -3.082031 2.4375 -3.0625 L 2.4375 -3.023438 L 2.339844 -2.574219 C 2.164062 -1.792969 2.066406 -1.34375 2.007812 -1.226562 C 1.832031 -0.78125 1.597656 -0.566406 1.304688 -0.585938 C 1.285156 -0.605469 1.285156 -0.605469 1.285156 -0.625 C 1.226562 -0.703125 1.1875 -0.820312 1.152344 -0.976562 C 1.074219 -1.285156 1.015625 -1.695312 0.996094 -2.222656 C 0.976562 -2.710938 0.976562 -3.160156 0.996094 -3.566406 C 1.035156 -3.976562 1.074219 -4.230469 1.132812 -4.328125 Z M 1.132812 -4.328125 "/></g></g></g><g fill="#000000" fill-opacity="1"><g transform="translate(40.443624, 32.087733)"><g/></g></g><g fill="#000000" fill-opacity="1"><g transform="translate(46.292168, 32.087733)"><g><path d="M 3.898438 -4.777344 C 3.996094 -4.621094 4.113281 -4.582031 4.269531 -4.679688 C 4.425781 -4.777344 4.464844 -4.894531 4.367188 -5.050781 C 4.191406 -5.382812 3.859375 -5.5 3.394531 -5.441406 C 3.101562 -5.382812 2.730469 -5.246094 2.320312 -5.03125 C 2.007812 -4.875 1.695312 -4.679688 1.382812 -4.445312 L 1.09375 -4.230469 L 1.015625 -4.171875 L 0.996094 -4.152344 L 0.976562 -4.152344 C 0.976562 -4.132812 0.957031 -4.132812 0.9375 -4.113281 L 0.9375 -4.09375 C 0.917969 -4.074219 0.878906 -4.015625 0.878906 -3.9375 C 0.878906 -3.703125 0.996094 -3.511719 1.246094 -3.355469 C 1.382812 -3.277344 1.597656 -3.199219 1.871094 -3.121094 C 1.96875 -3.101562 2.320312 -3.003906 2.476562 -2.945312 C 2.652344 -2.886719 2.75 -2.847656 2.789062 -2.808594 C 3.199219 -2.417969 3.023438 -1.929688 2.378906 -1.324219 C 1.8125 -0.800781 0.957031 -0.332031 0.507812 -0.253906 C 0.175781 -0.136719 0.273438 0.351562 0.625 0.292969 C 1.171875 0.15625 2.125 -0.332031 2.75 -0.9375 C 3.160156 -1.285156 3.414062 -1.636719 3.511719 -1.988281 C 3.644531 -2.4375 3.546875 -2.847656 3.179688 -3.199219 C 3.082031 -3.296875 2.886719 -3.394531 2.632812 -3.472656 C 2.496094 -3.53125 2.144531 -3.625 2.007812 -3.644531 C 1.792969 -3.703125 1.636719 -3.761719 1.539062 -3.820312 C 1.519531 -3.839844 1.5 -3.839844 1.5 -3.859375 L 1.695312 -3.996094 C 2.007812 -4.210938 2.300781 -4.40625 2.574219 -4.542969 C 2.945312 -4.738281 3.238281 -4.855469 3.492188 -4.894531 C 3.703125 -4.933594 3.839844 -4.894531 3.898438 -4.777344 Z M 3.898438 -4.777344 "/></g></g></g><g fill="#000000" fill-opacity="1"><g transform="translate(50.893024, 32.087733)"><g><path d="M 0.859375 -3.160156 C 1.1875 -4.074219 1.480469 -4.601562 1.734375 -4.777344 C 1.792969 -4.796875 1.832031 -4.796875 1.851562 -4.777344 C 1.929688 -4.71875 2.007812 -4.582031 2.085938 -4.386719 C 2.261719 -3.9375 2.320312 -3.375 2.300781 -2.691406 C 2.28125 -1.988281 2.144531 -1.460938 1.910156 -1.132812 C 1.773438 -0.9375 1.636719 -0.820312 1.539062 -0.78125 C 1.5 -0.761719 1.460938 -0.761719 1.421875 -0.78125 C 1.265625 -0.898438 1.132812 -1.207031 1.015625 -1.734375 C 0.917969 -2.164062 0.878906 -2.632812 0.859375 -3.160156 Z M 0.996094 -4.757812 C 0.976562 -4.855469 0.917969 -4.914062 0.820312 -4.933594 C 0.644531 -4.992188 0.527344 -4.953125 0.46875 -4.777344 C 0.351562 -4.445312 0.292969 -3.9375 0.3125 -3.257812 L 0.195312 -2.886719 C 0.136719 -2.730469 0.195312 -2.613281 0.351562 -2.554688 C 0.371094 -2.222656 0.429688 -1.910156 0.488281 -1.617188 C 0.625 -0.976562 0.839844 -0.546875 1.09375 -0.351562 C 1.304688 -0.195312 1.519531 -0.175781 1.753906 -0.273438 C 1.949219 -0.351562 2.144531 -0.527344 2.339844 -0.820312 C 2.632812 -1.226562 2.808594 -1.851562 2.847656 -2.671875 C 2.867188 -3.414062 2.789062 -4.054688 2.59375 -4.582031 C 2.496094 -4.875 2.359375 -5.089844 2.183594 -5.226562 C 1.949219 -5.402344 1.695312 -5.402344 1.441406 -5.246094 C 1.285156 -5.148438 1.132812 -4.972656 0.996094 -4.757812 Z M 0.996094 -4.757812 "/></g></g></g><g fill="#000000" fill-opacity="1"><g transform="translate(53.93427, 32.087733)"><g><path d="M 1.132812 -4.328125 C 1.226562 -4.484375 1.1875 -4.601562 1.035156 -4.699219 C 0.878906 -4.796875 0.761719 -4.757812 0.664062 -4.601562 C 0.566406 -4.425781 0.488281 -4.113281 0.46875 -3.625 C 0.429688 -3.179688 0.429688 -2.710938 0.449219 -2.203125 C 0.46875 -1.636719 0.527344 -1.1875 0.625 -0.839844 C 0.683594 -0.625 0.742188 -0.46875 0.820312 -0.332031 C 0.9375 -0.15625 1.074219 -0.0585938 1.246094 -0.0390625 C 1.8125 0 2.242188 -0.332031 2.515625 -1.035156 C 2.574219 -1.171875 2.710938 -1.65625 2.886719 -2.457031 L 2.925781 -2.671875 C 2.984375 -2.261719 3.0625 -1.949219 3.140625 -1.695312 C 3.414062 -0.800781 3.957031 -0.214844 4.796875 0.0585938 C 4.972656 0.117188 5.070312 0.078125 5.128906 -0.0976562 C 5.1875 -0.273438 5.128906 -0.390625 4.953125 -0.449219 C 4.308594 -0.664062 3.878906 -1.132812 3.664062 -1.851562 C 3.585938 -2.085938 3.511719 -2.4375 3.433594 -2.925781 C 3.355469 -3.472656 3.277344 -3.859375 3.21875 -4.113281 L 3.179688 -4.171875 C 3.160156 -4.230469 3.101562 -4.289062 3.023438 -4.308594 C 2.90625 -4.367188 2.808594 -4.328125 2.710938 -4.210938 L 2.671875 -4.132812 C 2.652344 -4.113281 2.652344 -4.054688 2.652344 -3.996094 C 2.632812 -3.976562 2.632812 -3.957031 2.632812 -3.9375 L 2.632812 -3.859375 L 2.554688 -3.605469 L 2.457031 -3.101562 L 2.457031 -3.082031 C 2.4375 -3.082031 2.4375 -3.082031 2.4375 -3.0625 L 2.4375 -3.023438 L 2.339844 -2.574219 C 2.164062 -1.792969 2.066406 -1.34375 2.007812 -1.226562 C 1.832031 -0.78125 1.597656 -0.566406 1.304688 -0.585938 C 1.285156 -0.605469 1.285156 -0.605469 1.285156 -0.625 C 1.226562 -0.703125 1.1875 -0.820312 1.152344 -0.976562 C 1.074219 -1.285156 1.015625 -1.695312 0.996094 -2.222656 C 0.976562 -2.710938 0.976562 -3.160156 0.996094 -3.566406 C 1.035156 -3.976562 1.074219 -4.230469 1.132812 -4.328125 Z M 1.132812 -4.328125 "/></g></g></g><g fill="#000000" fill-opacity="1"><g transform="translate(59.275933, 32.087733)"><g/></g></g><g fill="#000000" fill-opacity="1"><g transform="translate(65.124477, 32.087733)"><g><path d="M 0.859375 -3.160156 C 1.1875 -4.074219 1.480469 -4.601562 1.734375 -4.777344 C 1.792969 -4.796875 1.832031 -4.796875 1.851562 -4.777344 C 1.929688 -4.71875 2.007812 -4.582031 2.085938 -4.386719 C 2.261719 -3.9375 2.320312 -3.375 2.300781 -2.691406 C 2.28125 -1.988281 2.144531 -1.460938 1.910156 -1.132812 C 1.773438 -0.9375 1.636719 -0.820312 1.539062 -0.78125 C 1.5 -0.761719 1.460938 -0.761719 1.421875 -0.78125 C 1.265625 -0.898438 1.132812 -1.207031 1.015625 -1.734375 C 0.917969 -2.164062 0.878906 -2.632812 0.859375 -3.160156 Z M 0.996094 -4.757812 C 0.976562 -4.855469 0.917969 -4.914062 0.820312 -4.933594 C 0.644531 -4.992188 0.527344 -4.953125 0.46875 -4.777344 C 0.351562 -4.445312 0.292969 -3.9375 0.3125 -3.257812 L 0.195312 -2.886719 C 0.136719 -2.730469 0.195312 -2.613281 0.351562 -2.554688 C 0.371094 -2.222656 0.429688 -1.910156 0.488281 -1.617188 C 0.625 -0.976562 0.839844 -0.546875 1.09375 -0.351562 C 1.304688 -0.195312 1.519531 -0.175781 1.753906 -0.273438 C 1.949219 -0.351562 2.144531 -0.527344 2.339844 -0.820312 C 2.632812 -1.226562 2.808594 -1.851562 2.847656 -2.671875 C 2.867188 -3.414062 2.789062 -4.054688 2.59375 -4.582031 C 2.496094 -4.875 2.359375 -5.089844 2.183594 -5.226562 C 1.949219 -5.402344 1.695312 -5.402344 1.441406 -5.246094 C 1.285156 -5.148438 1.132812 -4.972656 0.996094 -4.757812 Z M 0.996094 -4.757812 "/></g></g></g><g fill="#000000" fill-opacity="1"><g transform="translate(68.165723, 32.087733)"><g/></g></g><g fill="#000000" fill-opacity="1"><g transform="translate(74.014267, 32.087733)"><g><path d="M 0.371094 -7.410156 C 0.292969 -8.054688 0.253906 -8.617188 0.253906 -9.144531 C 0.253906 -9.730469 0.292969 -10.257812 0.390625 -10.703125 C 0.429688 -10.917969 0.46875 -11.113281 0.527344 -11.25 C 0.507812 -11.015625 0.46875 -10.722656 0.449219 -10.375 C 0.410156 -9.652344 0.390625 -8.714844 0.371094 -7.527344 Z M 1.226562 -11.71875 C 1.363281 -11.699219 1.578125 -11.621094 1.832031 -11.523438 C 2.320312 -11.328125 2.652344 -11.210938 2.847656 -11.191406 C 3.140625 -11.152344 3.511719 -11.113281 3.957031 -11.09375 L 5.050781 -11.015625 C 5.363281 -10.957031 5.480469 -11.503906 5.089844 -11.5625 L 3.996094 -11.640625 C 3.546875 -11.660156 3.179688 -11.699219 2.925781 -11.738281 C 2.769531 -11.757812 2.476562 -11.855469 2.027344 -12.03125 C 1.597656 -12.207031 1.246094 -12.285156 0.976562 -12.285156 C 0.644531 -12.285156 0.390625 -12.109375 0.175781 -11.777344 C 0.0390625 -11.542969 -0.078125 -11.210938 -0.15625 -10.800781 C -0.253906 -10.316406 -0.292969 -9.75 -0.292969 -9.144531 C -0.292969 -8.539062 -0.253906 -7.957031 -0.15625 -7.195312 L -0.0390625 -6.316406 C -0.0195312 -6.121094 0.0390625 -5.792969 0.117188 -5.304688 L 0.273438 -4.40625 C 0.332031 -4.074219 0.371094 -3.78125 0.390625 -3.53125 C 0.410156 -3.121094 0.410156 -2.867188 0.410156 -2.808594 C 0.410156 -2.496094 0.429688 -1.949219 0.449219 -1.1875 C 0.449219 -0.976562 0.46875 -0.625 0.488281 -0.136719 L 0.488281 0.136719 C 0.488281 0.195312 0.488281 0.253906 0.507812 0.273438 L 0.507812 0.332031 L 0.566406 0.429688 C 0.605469 0.488281 0.664062 0.527344 0.742188 0.527344 C 0.839844 0.546875 0.917969 0.507812 0.976562 0.449219 L 1.035156 0.351562 C 1.035156 0.332031 1.054688 0.292969 1.054688 0.273438 C 1.1875 -0.800781 1.152344 -2.066406 0.9375 -3.566406 C 0.917969 -5.148438 0.898438 -6.453125 0.917969 -7.527344 L 0.917969 -7.761719 L 1.441406 -8.074219 L 1.695312 -8.210938 C 1.714844 -8.230469 2.007812 -8.285156 2.554688 -8.421875 C 2.925781 -8.539062 2.75 -9.027344 2.4375 -8.96875 L 1.480469 -8.714844 C 1.421875 -8.695312 1.324219 -8.636719 1.171875 -8.539062 L 0.917969 -8.402344 C 0.9375 -9.164062 0.957031 -9.808594 0.996094 -10.335938 C 1.015625 -10.742188 1.054688 -11.054688 1.09375 -11.289062 L 1.152344 -11.582031 L 1.171875 -11.660156 Z M 1.226562 -11.71875 "/></g></g></g><g fill="#000000" fill-opacity="1"><g transform="translate(79.55089, 32.087733)"><g><path d="M 1.421875 -5.128906 C 1.363281 -5.480469 0.820312 -5.402344 0.878906 -5.050781 C 0.9375 -4.738281 0.957031 -4.269531 0.976562 -3.664062 C 0.996094 -3.140625 0.996094 -2.476562 0.996094 -1.65625 C 0.996094 -1.480469 0.957031 -0.878906 0.996094 -0.605469 L 0.996094 -0.527344 C 1.015625 -0.46875 1.015625 -0.429688 1.015625 -0.410156 C 1.035156 -0.332031 1.054688 -0.273438 1.09375 -0.214844 C 1.1875 -0.078125 1.324219 -0.0585938 1.460938 -0.117188 C 1.539062 -0.136719 1.597656 -0.195312 1.617188 -0.273438 C 1.636719 -0.292969 1.636719 -0.3125 1.636719 -0.332031 L 1.636719 -0.78125 C 1.617188 -1.074219 1.636719 -1.304688 1.65625 -1.460938 C 1.675781 -1.714844 1.734375 -2.007812 1.832031 -2.339844 C 2.144531 -3.375 2.59375 -3.859375 3.703125 -4.5625 C 3.839844 -4.660156 3.859375 -4.796875 3.761719 -4.933594 C 3.664062 -5.089844 3.546875 -5.128906 3.394531 -5.03125 C 2.398438 -4.386719 1.910156 -3.9375 1.539062 -3.101562 C 1.519531 -3.277344 1.519531 -3.453125 1.519531 -3.664062 C 1.5 -4.289062 1.480469 -4.777344 1.421875 -5.128906 Z M 1.421875 -5.128906 "/></g></g></g><g fill="#000000" fill-opacity="1"><g transform="translate(83.566889, 32.087733)"><g><path d="M 0.859375 -3.160156 C 1.1875 -4.074219 1.480469 -4.601562 1.734375 -4.777344 C 1.792969 -4.796875 1.832031 -4.796875 1.851562 -4.777344 C 1.929688 -4.71875 2.007812 -4.582031 2.085938 -4.386719 C 2.261719 -3.9375 2.320312 -3.375 2.300781 -2.691406 C 2.28125 -1.988281 2.144531 -1.460938 1.910156 -1.132812 C 1.773438 -0.9375 1.636719 -0.820312 1.539062 -0.78125 C 1.5 -0.761719 1.460938 -0.761719 1.421875 -0.78125 C 1.265625 -0.898438 1.132812 -1.207031 1.015625 -1.734375 C 0.917969 -2.164062 0.878906 -2.632812 0.859375 -3.160156 Z M 0.996094 -4.757812 C 0.976562 -4.855469 0.917969 -4.914062 0.820312 -4.933594 C 0.644531 -4.992188 0.527344 -4.953125 0.46875 -4.777344 C 0.351562 -4.445312 0.292969 -3.9375 0.3125 -3.257812 L 0.195312 -2.886719 C 0.136719 -2.730469 0.195312 -2.613281 0.351562 -2.554688 C 0.371094 -2.222656 0.429688 -1.910156 0.488281 -1.617188 C 0.625 -0.976562 0.839844 -0.546875 1.09375 -0.351562 C 1.304688 -0.195312 1.519531 -0.175781 1.753906 -0.273438 C 1.949219 -0.351562 2.144531 -0.527344 2.339844 -0.820312 C 2.632812 -1.226562 2.808594 -1.851562 2.847656 -2.671875 C 2.867188 -3.414062 2.789062 -4.054688 2.59375 -4.582031 C 2.496094 -4.875 2.359375 -5.089844 2.183594 -5.226562 C 1.949219 -5.402344 1.695312 -5.402344 1.441406 -5.246094 C 1.285156 -5.148438 1.132812 -4.972656 0.996094 -4.757812 Z M 0.996094 -4.757812 "/></g></g></g><g fill="#000000" fill-opacity="1"><g transform="translate(86.608135, 32.087733)"><g><path d="M 3.898438 -4.777344 C 3.996094 -4.621094 4.113281 -4.582031 4.269531 -4.679688 C 4.425781 -4.777344 4.464844 -4.894531 4.367188 -5.050781 C 4.191406 -5.382812 3.859375 -5.5 3.394531 -5.441406 C 3.101562 -5.382812 2.730469 -5.246094 2.320312 -5.03125 C 2.007812 -4.875 1.695312 -4.679688 1.382812 -4.445312 L 1.09375 -4.230469 L 1.015625 -4.171875 L 0.996094 -4.152344 L 0.976562 -4.152344 C 0.976562 -4.132812 0.957031 -4.132812 0.9375 -4.113281 L 0.9375 -4.09375 C 0.917969 -4.074219 0.878906 -4.015625 0.878906 -3.9375 C 0.878906 -3.703125 0.996094 -3.511719 1.246094 -3.355469 C 1.382812 -3.277344 1.597656 -3.199219 1.871094 -3.121094 C 1.96875 -3.101562 2.320312 -3.003906 2.476562 -2.945312 C 2.652344 -2.886719 2.75 -2.847656 2.789062 -2.808594 C 3.199219 -2.417969 3.023438 -1.929688 2.378906 -1.324219 C 1.8125 -0.800781 0.957031 -0.332031 0.507812 -0.253906 C 0.175781 -0.136719 0.273438 0.351562 0.625 0.292969 C 1.171875 0.15625 2.125 -0.332031 2.75 -0.9375 C 3.160156 -1.285156 3.414062 -1.636719 3.511719 -1.988281 C 3.644531 -2.4375 3.546875 -2.847656 3.179688 -3.199219 C 3.082031 -3.296875 2.886719 -3.394531 2.632812 -3.472656 C 2.496094 -3.53125 2.144531 -3.625 2.007812 -3.644531 C 1.792969 -3.703125 1.636719 -3.761719 1.539062 -3.820312 C 1.519531 -3.839844 1.5 -3.839844 1.5 -3.859375 L 1.695312 -3.996094 C 2.007812 -4.210938 2.300781 -4.40625 2.574219 -4.542969 C 2.945312 -4.738281 3.238281 -4.855469 3.492188 -4.894531 C 3.703125 -4.933594 3.839844 -4.894531 3.898438 -4.777344 Z M 3.898438 -4.777344 "/></g></g></g><g fill="#000000" fill-opacity="1"><g transform="translate(91.208991, 32.087733)"><g><path d="M 2.59375 -1.1875 C 1.753906 -1.054688 1.246094 -0.976562 1.054688 -0.976562 C 0.761719 -0.976562 0.546875 -1.015625 0.429688 -1.09375 C 0.351562 -1.132812 0.332031 -1.226562 0.371094 -1.363281 C 0.507812 -1.8125 0.898438 -2.105469 1.519531 -2.222656 C 2.125 -2.339844 2.652344 -2.261719 3.082031 -2.007812 C 3.257812 -1.910156 3.355469 -1.753906 3.414062 -1.578125 C 3.433594 -1.558594 3.472656 -1.402344 3.492188 -1.34375 Z M 0.214844 -5.285156 C 0.078125 -5.167969 0.0585938 -5.03125 0.175781 -4.894531 C 0.292969 -4.757812 0.429688 -4.738281 0.566406 -4.855469 C 1.113281 -5.304688 1.695312 -5.324219 2.320312 -4.953125 C 2.867188 -4.621094 3.335938 -3.976562 3.492188 -3.335938 C 3.566406 -3.0625 3.605469 -2.710938 3.625 -2.261719 C 3.546875 -2.339844 3.453125 -2.417969 3.355469 -2.476562 C 2.808594 -2.808594 2.164062 -2.90625 1.421875 -2.769531 C 0.585938 -2.59375 0.0585938 -2.183594 -0.136719 -1.519531 C -0.273438 -1.113281 -0.175781 -0.820312 0.15625 -0.625 C 0.351562 -0.488281 0.644531 -0.429688 1.054688 -0.429688 C 1.285156 -0.429688 1.832031 -0.507812 2.671875 -0.644531 L 3.78125 -0.839844 L 3.839844 -0.78125 C 3.898438 -0.742188 3.976562 -0.722656 4.035156 -0.742188 C 4.152344 -0.761719 4.230469 -0.820312 4.269531 -0.917969 C 4.308594 -0.9375 4.347656 -0.9375 4.367188 -0.9375 C 4.386719 -0.957031 4.40625 -0.957031 4.425781 -0.957031 L 4.445312 -0.976562 L 5.597656 -1.132812 C 5.945312 -1.1875 5.871094 -1.734375 5.519531 -1.675781 L 4.210938 -1.480469 C 4.191406 -1.539062 4.191406 -1.617188 4.191406 -1.675781 C 4.191406 -1.851562 4.171875 -2.320312 4.152344 -2.554688 C 4.152344 -2.789062 4.113281 -3.179688 4.035156 -3.492188 C 3.820312 -4.25 3.296875 -5.011719 2.613281 -5.421875 C 1.773438 -5.925781 0.976562 -5.886719 0.214844 -5.285156 Z M 0.214844 -5.285156 "/></g></g></g><g fill="#000000" fill-opacity="1"><g transform="translate(97.23299, 32.087733)"><g><path d="M 1.441406 -11.972656 C 1.617188 -11.914062 1.734375 -11.953125 1.792969 -12.128906 C 1.851562 -12.304688 1.8125 -12.421875 1.636719 -12.480469 L 1.617188 -12.5 L 1.519531 -12.558594 C 1.460938 -12.617188 1.382812 -12.636719 1.324219 -12.636719 C 1.1875 -12.65625 1.054688 -12.578125 0.996094 -12.421875 C 0.898438 -12.128906 0.839844 -11.71875 0.859375 -11.230469 C 0.878906 -10.625 0.898438 -10.257812 0.878906 -10.121094 C 0.839844 -9.632812 0.761719 -8.910156 0.625 -7.9375 C 0.488281 -6.960938 0.390625 -6.082031 0.332031 -5.304688 C 0.273438 -4.523438 0.253906 -3.78125 0.273438 -3.0625 C 0.273438 -2.75 0.820312 -2.710938 0.820312 -3.101562 C 0.761719 -4.503906 0.917969 -5.925781 1.152344 -7.859375 C 1.285156 -8.8125 1.363281 -9.554688 1.421875 -10.082031 C 1.441406 -10.21875 1.421875 -10.605469 1.402344 -11.25 C 1.382812 -11.542969 1.402344 -11.796875 1.421875 -11.972656 Z M 1.480469 -12.207031 C 1.480469 -12.226562 1.480469 -12.246094 1.5 -12.265625 L 1.5 -12.246094 Z M 0.566406 -0.390625 C 0.507812 -0.214844 0.546875 -0.0976562 0.722656 -0.0390625 C 0.898438 0.0195312 1.015625 -0.0585938 1.074219 -0.234375 C 1.132812 -0.410156 1.171875 -0.625 1.171875 -0.878906 L 1.226562 -1.382812 C 1.34375 -1.734375 0.78125 -1.851562 0.722656 -1.539062 C 0.664062 -1.363281 0.644531 -1.132812 0.625 -0.878906 C 0.625 -0.683594 0.605469 -0.527344 0.566406 -0.390625 Z M 0.566406 -0.390625 "/></g></g></g></svg>