<svg xmlns="http://www.w3.org/2000/svg" xmlns:xlink="http://www.w3.org/1999/xlink" width="150" zoomAndPan="magnify" viewBox="0 0 112.5 37.5" height="50" preserveAspectRatio="xMidYMid meet" version="1.0"><defs><g/><clipPath id="id1"><path d="M 109 7 L 111.511719 7 L 111.511719 28 L 109 28 Z M 109 7 " clip-rule="nonzero"/></clipPath></defs><g fill="#000000" fill-opacity="1"><g transform="translate(0.511846, 27.577585)"><g><path d="M 1.972656 -11.03125 C 2.09375 -12.046875 2.3125 -13.035156 2.589844 -13.988281 C 2.867188 -15.097656 3.234375 -15.960938 3.699219 -16.609375 C 4.46875 -17.746094 5.269531 -17.871094 6.039062 -17.039062 C 6.53125 -16.515625 6.996094 -15.683594 7.394531 -14.542969 C 7.949219 -12.972656 8.257812 -11.152344 8.289062 -9.152344 C 8.351562 -7.148438 8.164062 -5.300781 7.703125 -3.636719 C 6.71875 0.308594 3.882812 0.308594 2.648438 -3.511719 C 2.0625 -5.515625 1.816406 -7.796875 1.910156 -10.382812 Z M 2.648438 -16.578125 C 2.589844 -16.730469 2.496094 -16.824219 2.339844 -16.855469 C 2.09375 -16.886719 1.910156 -16.761719 1.816406 -16.515625 C 1.355469 -14.511719 1.109375 -12.480469 1.046875 -10.414062 L 0.957031 -9.121094 C 0.925781 -8.597656 0.925781 -8.195312 0.894531 -7.980469 C 0.863281 -7.828125 0.925781 -7.671875 1.078125 -7.578125 C 1.203125 -6.007812 1.449219 -4.589844 1.847656 -3.265625 C 2.1875 -2.15625 2.648438 -1.292969 3.265625 -0.679688 C 4.46875 0.523438 6.070312 0.523438 7.273438 -0.800781 C 7.855469 -1.449219 8.289062 -2.3125 8.566406 -3.449219 C 9.027344 -5.207031 9.214844 -7.117188 9.183594 -9.183594 C 9.121094 -11.277344 8.78125 -13.15625 8.195312 -14.851562 C 7.765625 -16.085938 7.273438 -17.007812 6.6875 -17.625 C 6.070312 -18.273438 5.421875 -18.519531 4.746094 -18.425781 C 4.097656 -18.332031 3.511719 -17.871094 2.988281 -17.101562 C 2.867188 -16.945312 2.742188 -16.761719 2.648438 -16.578125 Z M 2.648438 -16.578125 "/></g></g></g><g fill="#000000" fill-opacity="1"><g transform="translate(9.969461, 27.577585)"><g><path d="M 0.183594 -11.402344 C 0.03125 -11.460938 -0.125 -11.429688 -0.277344 -11.339844 C -0.492188 -11.183594 -0.523438 -10.96875 -0.339844 -10.722656 L -0.214844 -10.539062 L 0 -10.292969 C 0.277344 -10.042969 0.617188 -10.015625 0.957031 -10.230469 C 1.109375 -10.292969 1.234375 -10.382812 1.324219 -10.476562 C 1.480469 -10.660156 1.539062 -10.847656 1.511719 -11.0625 C 1.480469 -11.246094 1.417969 -11.402344 1.386719 -11.523438 L 1.261719 -11.769531 C 1.171875 -11.863281 1.078125 -11.894531 0.984375 -11.894531 C 0.769531 -11.957031 0.554688 -11.894531 0.371094 -11.679688 Z M 0.738281 -7.394531 C 0.738281 -6.808594 0.769531 -6.441406 1.109375 -6.347656 L 1.140625 -6.070312 C 1.171875 -5.855469 1.171875 -5.332031 1.109375 -4.46875 C 1.046875 -3.542969 1.046875 -2.894531 1.078125 -2.496094 C 1.109375 -2.15625 1.203125 -1.910156 1.292969 -1.695312 C 1.449219 -1.355469 1.695312 -1.203125 2.003906 -1.171875 C 2.28125 -1.171875 2.617188 -1.292969 2.957031 -1.511719 C 3.234375 -1.726562 3.605469 -2.0625 4.003906 -2.527344 C 4.222656 -2.742188 4.191406 -2.925781 3.976562 -3.113281 C 3.757812 -3.328125 3.574219 -3.296875 3.390625 -3.082031 C 3.019531 -2.679688 2.710938 -2.402344 2.433594 -2.21875 C 2.28125 -2.125 2.1875 -2.0625 2.09375 -2.035156 C 2.0625 -2.0625 2.0625 -2.0625 2.0625 -2.09375 C 2.003906 -2.1875 1.972656 -2.371094 1.941406 -2.589844 C 1.910156 -2.925781 1.910156 -3.511719 1.972656 -4.40625 C 2.035156 -5.300781 2.035156 -5.914062 2.003906 -6.191406 C 1.910156 -6.964844 1.816406 -7.488281 1.757812 -7.765625 C 1.726562 -7.917969 1.664062 -8.042969 1.632812 -8.132812 L 1.511719 -8.289062 C 1.386719 -8.382812 1.261719 -8.382812 1.109375 -8.351562 C 1.015625 -8.320312 0.925781 -8.257812 0.863281 -8.164062 C 0.832031 -8.132812 0.800781 -8.074219 0.800781 -8.042969 C 0.769531 -7.917969 0.738281 -7.703125 0.738281 -7.394531 Z M 0.738281 -7.394531 "/></g></g></g><g fill="#000000" fill-opacity="1"><g transform="translate(14.405609, 27.577585)"><g><path d="M 1.632812 -0.648438 C 1.140625 -0.648438 1.078125 0.214844 1.695312 0.214844 C 1.726562 0.214844 1.847656 0.214844 2.0625 0.183594 L 2.648438 0.09375 C 2.894531 0.0625 3.082031 0.0625 3.203125 0.0625 C 3.296875 0.0625 3.328125 0.0625 3.359375 0.09375 C 3.328125 -0.03125 3.296875 -0.0625 3.234375 -0.03125 C 3.359375 -0.152344 3.449219 -0.09375 3.480469 0.125 C 3.574219 0.648438 3.511719 1.261719 3.234375 1.941406 C 3.113281 2.28125 2.925781 2.679688 2.648438 3.144531 C 2.558594 3.265625 2.15625 3.976562 2.0625 4.222656 C 1.910156 4.46875 1.972656 4.652344 2.21875 4.777344 C 2.496094 4.929688 2.679688 4.867188 2.804688 4.589844 L 3.113281 4.066406 L 3.390625 3.574219 C 3.667969 3.082031 3.882812 2.648438 4.035156 2.25 C 4.53125 1.015625 4.46875 0.0625 3.851562 -0.585938 C 3.757812 -0.679688 3.636719 -0.738281 3.480469 -0.769531 C 3.421875 -0.800781 3.328125 -0.800781 3.203125 -0.800781 C 3.050781 -0.800781 2.835938 -0.769531 2.589844 -0.738281 C 2.433594 -0.738281 2.21875 -0.707031 1.972656 -0.679688 C 1.757812 -0.648438 1.664062 -0.648438 1.632812 -0.648438 Z M 1.632812 -0.648438 "/></g></g></g><g fill="#000000" fill-opacity="1"><g transform="translate(19.057405, 27.577585)"><g/></g></g><g fill="#000000" fill-opacity="1"><g transform="translate(28.299389, 27.577585)"><g><path d="M 6.164062 -7.550781 C 6.316406 -7.300781 6.5 -7.242188 6.746094 -7.394531 C 6.996094 -7.550781 7.054688 -7.734375 6.902344 -7.980469 C 6.625 -8.503906 6.101562 -8.6875 5.363281 -8.597656 C 4.898438 -8.503906 4.3125 -8.289062 3.667969 -7.949219 C 3.171875 -7.703125 2.679688 -7.394531 2.1875 -7.023438 L 1.726562 -6.6875 L 1.601562 -6.59375 L 1.570312 -6.5625 L 1.539062 -6.5625 C 1.539062 -6.53125 1.511719 -6.53125 1.480469 -6.5 L 1.480469 -6.46875 C 1.449219 -6.441406 1.386719 -6.347656 1.386719 -6.222656 C 1.386719 -5.855469 1.570312 -5.546875 1.972656 -5.300781 C 2.1875 -5.175781 2.527344 -5.054688 2.957031 -4.929688 C 3.113281 -4.898438 3.667969 -4.746094 3.914062 -4.652344 C 4.191406 -4.558594 4.34375 -4.5 4.40625 -4.4375 C 5.054688 -3.820312 4.777344 -3.050781 3.757812 -2.09375 C 2.867188 -1.261719 1.511719 -0.523438 0.800781 -0.402344 C 0.277344 -0.214844 0.429688 0.554688 0.984375 0.460938 C 1.847656 0.246094 3.359375 -0.523438 4.34375 -1.480469 C 4.992188 -2.035156 5.390625 -2.589844 5.546875 -3.144531 C 5.761719 -3.851562 5.609375 -4.5 5.023438 -5.054688 C 4.867188 -5.207031 4.558594 -5.363281 4.160156 -5.484375 C 3.945312 -5.578125 3.390625 -5.730469 3.171875 -5.761719 C 2.835938 -5.855469 2.589844 -5.945312 2.433594 -6.039062 C 2.402344 -6.070312 2.371094 -6.070312 2.371094 -6.101562 L 2.679688 -6.316406 C 3.171875 -6.65625 3.636719 -6.964844 4.066406 -7.179688 C 4.652344 -7.488281 5.113281 -7.671875 5.515625 -7.734375 C 5.855469 -7.796875 6.070312 -7.734375 6.164062 -7.550781 Z M 6.164062 -7.550781 "/></g></g></g><g fill="#000000" fill-opacity="1"><g transform="translate(35.569752, 27.577585)"><g><path d="M 1.355469 -4.992188 C 1.878906 -6.441406 2.339844 -7.273438 2.742188 -7.550781 C 2.835938 -7.578125 2.894531 -7.578125 2.925781 -7.550781 C 3.050781 -7.457031 3.171875 -7.242188 3.296875 -6.933594 C 3.574219 -6.222656 3.667969 -5.332031 3.636719 -4.253906 C 3.605469 -3.144531 3.390625 -2.3125 3.019531 -1.789062 C 2.804688 -1.480469 2.589844 -1.292969 2.433594 -1.234375 C 2.371094 -1.203125 2.3125 -1.203125 2.25 -1.234375 C 2.003906 -1.417969 1.789062 -1.910156 1.601562 -2.742188 C 1.449219 -3.421875 1.386719 -4.160156 1.355469 -4.992188 Z M 1.570312 -7.519531 C 1.539062 -7.671875 1.449219 -7.765625 1.292969 -7.796875 C 1.015625 -7.886719 0.832031 -7.828125 0.738281 -7.550781 C 0.554688 -7.023438 0.460938 -6.222656 0.492188 -5.144531 L 0.308594 -4.558594 C 0.214844 -4.3125 0.308594 -4.128906 0.554688 -4.035156 C 0.585938 -3.511719 0.679688 -3.019531 0.769531 -2.558594 C 0.984375 -1.539062 1.324219 -0.863281 1.726562 -0.554688 C 2.0625 -0.308594 2.402344 -0.277344 2.773438 -0.429688 C 3.082031 -0.554688 3.390625 -0.832031 3.699219 -1.292969 C 4.160156 -1.941406 4.4375 -2.925781 4.5 -4.222656 C 4.53125 -5.390625 4.40625 -6.410156 4.097656 -7.242188 C 3.945312 -7.703125 3.726562 -8.042969 3.449219 -8.257812 C 3.082031 -8.535156 2.679688 -8.535156 2.28125 -8.289062 C 2.035156 -8.132812 1.789062 -7.855469 1.570312 -7.519531 Z M 1.570312 -7.519531 "/></g></g></g><g fill="#000000" fill-opacity="1"><g transform="translate(40.375588, 27.577585)"><g><path d="M 1.789062 -6.839844 C 1.941406 -7.085938 1.878906 -7.273438 1.632812 -7.425781 C 1.386719 -7.578125 1.203125 -7.519531 1.046875 -7.273438 C 0.894531 -6.996094 0.769531 -6.5 0.738281 -5.730469 C 0.679688 -5.023438 0.679688 -4.28125 0.707031 -3.480469 C 0.738281 -2.589844 0.832031 -1.878906 0.984375 -1.324219 C 1.078125 -0.984375 1.171875 -0.738281 1.292969 -0.523438 C 1.480469 -0.246094 1.695312 -0.09375 1.972656 -0.0625 C 2.867188 0 3.542969 -0.523438 3.976562 -1.632812 C 4.066406 -1.847656 4.28125 -2.617188 4.558594 -3.882812 L 4.621094 -4.222656 C 4.714844 -3.574219 4.835938 -3.082031 4.960938 -2.679688 C 5.390625 -1.261719 6.253906 -0.339844 7.578125 0.09375 C 7.855469 0.183594 8.011719 0.125 8.105469 -0.152344 C 8.195312 -0.429688 8.105469 -0.617188 7.828125 -0.707031 C 6.808594 -1.046875 6.132812 -1.789062 5.792969 -2.925781 C 5.667969 -3.296875 5.546875 -3.851562 5.421875 -4.621094 C 5.300781 -5.484375 5.175781 -6.101562 5.085938 -6.5 L 5.023438 -6.59375 C 4.992188 -6.6875 4.898438 -6.777344 4.777344 -6.808594 C 4.589844 -6.902344 4.4375 -6.839844 4.28125 -6.65625 L 4.222656 -6.53125 C 4.191406 -6.5 4.191406 -6.410156 4.191406 -6.316406 C 4.160156 -6.285156 4.160156 -6.253906 4.160156 -6.222656 L 4.160156 -6.101562 L 4.035156 -5.699219 L 3.882812 -4.898438 L 3.882812 -4.867188 C 3.851562 -4.867188 3.851562 -4.867188 3.851562 -4.835938 L 3.851562 -4.777344 L 3.699219 -4.066406 C 3.421875 -2.835938 3.265625 -2.125 3.171875 -1.941406 C 2.894531 -1.234375 2.527344 -0.894531 2.0625 -0.925781 C 2.035156 -0.957031 2.035156 -0.957031 2.035156 -0.984375 C 1.941406 -1.109375 1.878906 -1.292969 1.816406 -1.539062 C 1.695312 -2.035156 1.601562 -2.679688 1.570312 -3.511719 C 1.539062 -4.28125 1.539062 -4.992188 1.570312 -5.640625 C 1.632812 -6.285156 1.695312 -6.6875 1.789062 -6.839844 Z M 1.789062 -6.839844 "/></g></g></g><g fill="#000000" fill-opacity="1"><g transform="translate(48.816588, 27.577585)"><g/></g></g><g fill="#000000" fill-opacity="1"><g transform="translate(58.058572, 27.577585)"><g><path d="M 1.355469 -4.992188 C 1.878906 -6.441406 2.339844 -7.273438 2.742188 -7.550781 C 2.835938 -7.578125 2.894531 -7.578125 2.925781 -7.550781 C 3.050781 -7.457031 3.171875 -7.242188 3.296875 -6.933594 C 3.574219 -6.222656 3.667969 -5.332031 3.636719 -4.253906 C 3.605469 -3.144531 3.390625 -2.3125 3.019531 -1.789062 C 2.804688 -1.480469 2.589844 -1.292969 2.433594 -1.234375 C 2.371094 -1.203125 2.3125 -1.203125 2.25 -1.234375 C 2.003906 -1.417969 1.789062 -1.910156 1.601562 -2.742188 C 1.449219 -3.421875 1.386719 -4.160156 1.355469 -4.992188 Z M 1.570312 -7.519531 C 1.539062 -7.671875 1.449219 -7.765625 1.292969 -7.796875 C 1.015625 -7.886719 0.832031 -7.828125 0.738281 -7.550781 C 0.554688 -7.023438 0.460938 -6.222656 0.492188 -5.144531 L 0.308594 -4.558594 C 0.214844 -4.3125 0.308594 -4.128906 0.554688 -4.035156 C 0.585938 -3.511719 0.679688 -3.019531 0.769531 -2.558594 C 0.984375 -1.539062 1.324219 -0.863281 1.726562 -0.554688 C 2.0625 -0.308594 2.402344 -0.277344 2.773438 -0.429688 C 3.082031 -0.554688 3.390625 -0.832031 3.699219 -1.292969 C 4.160156 -1.941406 4.4375 -2.925781 4.5 -4.222656 C 4.53125 -5.390625 4.40625 -6.410156 4.097656 -7.242188 C 3.945312 -7.703125 3.726562 -8.042969 3.449219 -8.257812 C 3.082031 -8.535156 2.679688 -8.535156 2.28125 -8.289062 C 2.035156 -8.132812 1.789062 -7.855469 1.570312 -7.519531 Z M 1.570312 -7.519531 "/></g></g></g><g fill="#000000" fill-opacity="1"><g transform="translate(62.864408, 27.577585)"><g/></g></g><g fill="#000000" fill-opacity="1"><g transform="translate(72.106392, 27.577585)"><g><path d="M 0.585938 -11.707031 C 0.460938 -12.726562 0.402344 -13.617188 0.402344 -14.449219 C 0.402344 -15.375 0.460938 -16.207031 0.617188 -16.917969 C 0.679688 -17.253906 0.738281 -17.5625 0.832031 -17.777344 C 0.800781 -17.410156 0.738281 -16.945312 0.707031 -16.390625 C 0.648438 -15.253906 0.617188 -13.773438 0.585938 -11.894531 Z M 1.941406 -18.519531 C 2.15625 -18.488281 2.496094 -18.363281 2.894531 -18.210938 C 3.667969 -17.902344 4.191406 -17.71875 4.5 -17.6875 C 4.960938 -17.625 5.546875 -17.5625 6.253906 -17.53125 L 7.980469 -17.410156 C 8.472656 -17.316406 8.660156 -18.179688 8.042969 -18.273438 L 6.316406 -18.394531 C 5.609375 -18.425781 5.023438 -18.488281 4.621094 -18.550781 C 4.375 -18.578125 3.914062 -18.734375 3.203125 -19.011719 C 2.527344 -19.289062 1.972656 -19.410156 1.539062 -19.410156 C 1.015625 -19.410156 0.617188 -19.132812 0.277344 -18.609375 C 0.0625 -18.242188 -0.125 -17.71875 -0.246094 -17.070312 C -0.402344 -16.300781 -0.460938 -15.40625 -0.460938 -14.449219 C -0.460938 -13.496094 -0.402344 -12.570312 -0.246094 -11.371094 L -0.0625 -9.984375 C -0.03125 -9.675781 0.0625 -9.152344 0.183594 -8.382812 L 0.429688 -6.964844 C 0.523438 -6.441406 0.585938 -5.976562 0.617188 -5.578125 C 0.648438 -4.929688 0.648438 -4.53125 0.648438 -4.4375 C 0.648438 -3.945312 0.679688 -3.082031 0.707031 -1.878906 C 0.707031 -1.539062 0.738281 -0.984375 0.769531 -0.214844 L 0.769531 0.214844 C 0.769531 0.308594 0.769531 0.402344 0.800781 0.429688 L 0.800781 0.523438 L 0.894531 0.679688 C 0.957031 0.769531 1.046875 0.832031 1.171875 0.832031 C 1.324219 0.863281 1.449219 0.800781 1.539062 0.707031 L 1.632812 0.554688 C 1.632812 0.523438 1.664062 0.460938 1.664062 0.429688 C 1.878906 -1.261719 1.816406 -3.265625 1.480469 -5.640625 C 1.449219 -8.132812 1.417969 -10.199219 1.449219 -11.894531 L 1.449219 -12.261719 L 2.28125 -12.757812 L 2.679688 -12.972656 C 2.710938 -13.003906 3.171875 -13.09375 4.035156 -13.3125 C 4.621094 -13.496094 4.34375 -14.265625 3.851562 -14.171875 L 2.339844 -13.773438 C 2.25 -13.742188 2.09375 -13.648438 1.847656 -13.496094 L 1.449219 -13.28125 C 1.480469 -14.480469 1.511719 -15.5 1.570312 -16.332031 C 1.601562 -16.976562 1.664062 -17.472656 1.726562 -17.839844 L 1.816406 -18.300781 L 1.847656 -18.425781 Z M 1.941406 -18.519531 "/></g></g></g><g fill="#000000" fill-opacity="1"><g transform="translate(80.855471, 27.577585)"><g><path d="M 2.25 -8.105469 C 2.15625 -8.660156 1.292969 -8.535156 1.386719 -7.980469 C 1.480469 -7.488281 1.511719 -6.746094 1.539062 -5.792969 C 1.570312 -4.960938 1.570312 -3.914062 1.570312 -2.617188 C 1.570312 -2.339844 1.511719 -1.386719 1.570312 -0.957031 L 1.570312 -0.832031 C 1.601562 -0.738281 1.601562 -0.679688 1.601562 -0.648438 C 1.632812 -0.523438 1.664062 -0.429688 1.726562 -0.339844 C 1.878906 -0.125 2.09375 -0.09375 2.3125 -0.183594 C 2.433594 -0.214844 2.527344 -0.308594 2.558594 -0.429688 C 2.589844 -0.460938 2.589844 -0.492188 2.589844 -0.523438 L 2.589844 -1.234375 C 2.558594 -1.695312 2.589844 -2.0625 2.617188 -2.3125 C 2.648438 -2.710938 2.742188 -3.171875 2.894531 -3.699219 C 3.390625 -5.332031 4.097656 -6.101562 5.855469 -7.210938 C 6.070312 -7.363281 6.101562 -7.578125 5.945312 -7.796875 C 5.792969 -8.042969 5.609375 -8.105469 5.363281 -7.949219 C 3.789062 -6.933594 3.019531 -6.222656 2.433594 -4.898438 C 2.402344 -5.175781 2.402344 -5.453125 2.402344 -5.792969 C 2.371094 -6.777344 2.339844 -7.550781 2.25 -8.105469 Z M 2.25 -8.105469 "/></g></g></g><g fill="#000000" fill-opacity="1"><g transform="translate(87.201632, 27.577585)"><g><path d="M 1.355469 -4.992188 C 1.878906 -6.441406 2.339844 -7.273438 2.742188 -7.550781 C 2.835938 -7.578125 2.894531 -7.578125 2.925781 -7.550781 C 3.050781 -7.457031 3.171875 -7.242188 3.296875 -6.933594 C 3.574219 -6.222656 3.667969 -5.332031 3.636719 -4.253906 C 3.605469 -3.144531 3.390625 -2.3125 3.019531 -1.789062 C 2.804688 -1.480469 2.589844 -1.292969 2.433594 -1.234375 C 2.371094 -1.203125 2.3125 -1.203125 2.25 -1.234375 C 2.003906 -1.417969 1.789062 -1.910156 1.601562 -2.742188 C 1.449219 -3.421875 1.386719 -4.160156 1.355469 -4.992188 Z M 1.570312 -7.519531 C 1.539062 -7.671875 1.449219 -7.765625 1.292969 -7.796875 C 1.015625 -7.886719 0.832031 -7.828125 0.738281 -7.550781 C 0.554688 -7.023438 0.460938 -6.222656 0.492188 -5.144531 L 0.308594 -4.558594 C 0.214844 -4.3125 0.308594 -4.128906 0.554688 -4.035156 C 0.585938 -3.511719 0.679688 -3.019531 0.769531 -2.558594 C 0.984375 -1.539062 1.324219 -0.863281 1.726562 -0.554688 C 2.0625 -0.308594 2.402344 -0.277344 2.773438 -0.429688 C 3.082031 -0.554688 3.390625 -0.832031 3.699219 -1.292969 C 4.160156 -1.941406 4.4375 -2.925781 4.5 -4.222656 C 4.53125 -5.390625 4.40625 -6.410156 4.097656 -7.242188 C 3.945312 -7.703125 3.726562 -8.042969 3.449219 -8.257812 C 3.082031 -8.535156 2.679688 -8.535156 2.28125 -8.289062 C 2.035156 -8.132812 1.789062 -7.855469 1.570312 -7.519531 Z M 1.570312 -7.519531 "/></g></g></g><g fill="#000000" fill-opacity="1"><g transform="translate(92.007468, 27.577585)"><g><path d="M 6.164062 -7.550781 C 6.316406 -7.300781 6.5 -7.242188 6.746094 -7.394531 C 6.996094 -7.550781 7.054688 -7.734375 6.902344 -7.980469 C 6.625 -8.503906 6.101562 -8.6875 5.363281 -8.597656 C 4.898438 -8.503906 4.3125 -8.289062 3.667969 -7.949219 C 3.171875 -7.703125 2.679688 -7.394531 2.1875 -7.023438 L 1.726562 -6.6875 L 1.601562 -6.59375 L 1.570312 -6.5625 L 1.539062 -6.5625 C 1.539062 -6.53125 1.511719 -6.53125 1.480469 -6.5 L 1.480469 -6.46875 C 1.449219 -6.441406 1.386719 -6.347656 1.386719 -6.222656 C 1.386719 -5.855469 1.570312 -5.546875 1.972656 -5.300781 C 2.1875 -5.175781 2.527344 -5.054688 2.957031 -4.929688 C 3.113281 -4.898438 3.667969 -4.746094 3.914062 -4.652344 C 4.191406 -4.558594 4.34375 -4.5 4.40625 -4.4375 C 5.054688 -3.820312 4.777344 -3.050781 3.757812 -2.09375 C 2.867188 -1.261719 1.511719 -0.523438 0.800781 -0.402344 C 0.277344 -0.214844 0.429688 0.554688 0.984375 0.460938 C 1.847656 0.246094 3.359375 -0.523438 4.34375 -1.480469 C 4.992188 -2.035156 5.390625 -2.589844 5.546875 -3.144531 C 5.761719 -3.851562 5.609375 -4.5 5.023438 -5.054688 C 4.867188 -5.207031 4.558594 -5.363281 4.160156 -5.484375 C 3.945312 -5.578125 3.390625 -5.730469 3.171875 -5.761719 C 2.835938 -5.855469 2.589844 -5.945312 2.433594 -6.039062 C 2.402344 -6.070312 2.371094 -6.070312 2.371094 -6.101562 L 2.679688 -6.316406 C 3.171875 -6.65625 3.636719 -6.964844 4.066406 -7.179688 C 4.652344 -7.488281 5.113281 -7.671875 5.515625 -7.734375 C 5.855469 -7.796875 6.070312 -7.734375 6.164062 -7.550781 Z M 6.164062 -7.550781 "/></g></g></g><g fill="#000000" fill-opacity="1"><g transform="translate(99.277831, 27.577585)"><g><path d="M 4.097656 -1.878906 C 2.773438 -1.664062 1.972656 -1.539062 1.664062 -1.539062 C 1.203125 -1.539062 0.863281 -1.601562 0.679688 -1.726562 C 0.554688 -1.789062 0.523438 -1.941406 0.585938 -2.15625 C 0.800781 -2.867188 1.417969 -3.328125 2.402344 -3.511719 C 3.359375 -3.699219 4.191406 -3.574219 4.867188 -3.171875 C 5.144531 -3.019531 5.300781 -2.773438 5.390625 -2.496094 C 5.421875 -2.464844 5.484375 -2.21875 5.515625 -2.125 Z M 0.339844 -8.351562 C 0.125 -8.164062 0.09375 -7.949219 0.277344 -7.734375 C 0.460938 -7.519531 0.679688 -7.488281 0.894531 -7.671875 C 1.757812 -8.382812 2.679688 -8.410156 3.667969 -7.828125 C 4.53125 -7.300781 5.269531 -6.285156 5.515625 -5.269531 C 5.640625 -4.835938 5.699219 -4.28125 5.730469 -3.574219 C 5.609375 -3.699219 5.453125 -3.820312 5.300781 -3.914062 C 4.4375 -4.4375 3.421875 -4.589844 2.25 -4.375 C 0.925781 -4.097656 0.09375 -3.449219 -0.214844 -2.402344 C -0.429688 -1.757812 -0.277344 -1.292969 0.246094 -0.984375 C 0.554688 -0.769531 1.015625 -0.679688 1.664062 -0.679688 C 2.035156 -0.679688 2.894531 -0.800781 4.222656 -1.015625 L 5.976562 -1.324219 L 6.070312 -1.234375 C 6.164062 -1.171875 6.285156 -1.140625 6.378906 -1.171875 C 6.5625 -1.203125 6.6875 -1.292969 6.746094 -1.449219 C 6.808594 -1.480469 6.871094 -1.480469 6.902344 -1.480469 C 6.933594 -1.511719 6.964844 -1.511719 6.996094 -1.511719 L 7.023438 -1.539062 L 8.84375 -1.789062 C 9.398438 -1.878906 9.273438 -2.742188 8.71875 -2.648438 L 6.65625 -2.339844 C 6.625 -2.433594 6.625 -2.558594 6.625 -2.648438 C 6.625 -2.925781 6.59375 -3.667969 6.5625 -4.035156 C 6.5625 -4.40625 6.5 -5.023438 6.378906 -5.515625 C 6.039062 -6.71875 5.207031 -7.917969 4.128906 -8.566406 C 2.804688 -9.367188 1.539062 -9.304688 0.339844 -8.351562 Z M 0.339844 -8.351562 "/></g></g></g><g clip-path="url(#id1)"><g fill="#000000" fill-opacity="1"><g transform="translate(108.797072, 27.577585)"><g><path d="M 2.28125 -18.917969 C 2.558594 -18.828125 2.742188 -18.886719 2.835938 -19.164062 C 2.925781 -19.441406 2.867188 -19.628906 2.589844 -19.71875 L 2.558594 -19.75 L 2.402344 -19.84375 C 2.3125 -19.9375 2.1875 -19.964844 2.09375 -19.964844 C 1.878906 -19.996094 1.664062 -19.875 1.570312 -19.628906 C 1.417969 -19.164062 1.324219 -18.519531 1.355469 -17.746094 C 1.386719 -16.792969 1.417969 -16.207031 1.386719 -15.992188 C 1.324219 -15.222656 1.203125 -14.082031 0.984375 -12.539062 C 0.769531 -11 0.617188 -9.613281 0.523438 -8.382812 C 0.429688 -7.148438 0.402344 -5.976562 0.429688 -4.835938 C 0.429688 -4.34375 1.292969 -4.28125 1.292969 -4.898438 C 1.203125 -7.117188 1.449219 -9.367188 1.816406 -12.417969 C 2.035156 -13.925781 2.15625 -15.097656 2.25 -15.929688 C 2.28125 -16.144531 2.25 -16.761719 2.21875 -17.777344 C 2.1875 -18.242188 2.21875 -18.640625 2.25 -18.917969 Z M 2.339844 -19.289062 C 2.339844 -19.320312 2.339844 -19.351562 2.371094 -19.382812 L 2.371094 -19.351562 Z M 0.894531 -0.617188 C 0.800781 -0.339844 0.863281 -0.152344 1.140625 -0.0625 C 1.417969 0.03125 1.601562 -0.09375 1.695312 -0.371094 C 1.789062 -0.648438 1.847656 -0.984375 1.847656 -1.386719 L 1.941406 -2.1875 C 2.125 -2.742188 1.234375 -2.925781 1.140625 -2.433594 C 1.046875 -2.15625 1.015625 -1.789062 0.984375 -1.386719 C 0.984375 -1.078125 0.957031 -0.832031 0.894531 -0.617188 Z M 0.894531 -0.617188 "/></g></g></g></g></svg>